<?xml version="1.0" encoding="UTF-8"?>
<svg width="128" height="128" viewBox="0 0 128 128" xmlns="http://www.w3.org/2000/svg">
  <!-- 背景圆形 -->
  <circle cx="64" cy="64" r="60" fill="url(#gradient)"/>
  
  <!-- 渐变定义 -->
  <defs>
    <linearGradient id="gradient" x1="0%" y1="0%" x2="100%" y2="100%">
      <stop offset="0%" style="stop-color:#4F46E5"/>
      <stop offset="100%" style="stop-color:#7C3AED"/>
    </linearGradient>
  </defs>
  
  <!-- 文档图标 -->
  <g transform="translate(32, 24)" fill="white">
    <!-- 文档主体 -->
    <path d="M48 12H16c-2.2 0-4 1.8-4 4v56c0 2.2 1.8 4 4 4h32c2.2 0 4-1.8 4-4V16c0-2.2-1.8-4-4-4z" opacity="0.9"/>
    <!-- 文档线条 -->
    <rect x="20" y="24" width="24" height="4" rx="2" opacity="0.7"/>
    <rect x="20" y="36" width="24" height="4" rx="2" opacity="0.7"/>
    <rect x="20" y="48" width="16" height="4" rx="2" opacity="0.7"/>
  </g>
  
  <!-- 闪光效果 -->
  <circle cx="95" cy="30" r="4" fill="white" opacity="0.8"/>
  <circle cx="85" cy="25" r="2" fill="white" opacity="0.6"/>
</svg>
